<?xml version="1.0" encoding="utf-8"?>
<!-- Generator: Adobe Illustrator 21.0.0, SVG Export Plug-In . SVG Version: 6.00 Build 0)  -->
<svg version="1.1" xmlns="http://www.w3.org/2000/svg" xmlns:xlink="http://www.w3.org/1999/xlink" x="0px" y="0px"
	 viewBox="0 0 541 303" style="enable-background:new 0 0 541 303;" xml:space="preserve">
<style type="text/css">
	.st0{fill:#FF0000;}
	.st1{fill:#4966A8;}
	.st2{fill:#FFFFFF;}
</style>
<g id="Layer_1">
	<g>
		<g id="XMLID_1_">
			<path class="st0" d="M491.4,258.8v10.7h-1.7l-0.1-1.7c-0.8,0.7-1.8,1.3-2.9,1.5c-1.1,0.2-2.1,0.6-3.1,0.6s-1.8-0.1-2.5-0.6
				c-0.7-0.3-1.3-0.8-1.7-1.4s-0.6-1.3-0.6-2.1c0-2,1-3.3,2.9-4.3c2-1,4.5-1.4,7.7-1.5v-1.1c0-1.3-0.3-2.1-0.8-2.8
				c-0.6-0.6-1.4-1-2.5-1c-0.8,0-1.8,0.1-2.8,0.4s-2,0.8-2.9,1.5l-0.8-1.4c2.1-1.5,4.5-2.2,6.8-2.2
				C489.8,253.8,491.4,255.5,491.4,258.8z M489.5,266.2v-4.6c-2.6,0-4.7,0.4-6.3,1.1c-1.7,0.7-2.4,1.7-2.4,3.1
				c0.1,0.7,0.3,1.4,0.7,1.8c0.6,0.4,1.3,0.7,2.4,0.7c1,0,2-0.1,2.8-0.6C487.5,267.3,488.5,266.9,489.5,266.2z"/>
			<path class="st0" d="M467.5,247.5c0.3,0.3,0.4,0.6,0.4,1s-0.1,0.7-0.4,1s-0.6,0.4-1,0.4s-0.6-0.2-1-0.4c-0.3-0.3-0.4-0.6-0.4-1
				s0.1-0.7,0.4-1s0.6-0.4,1-0.4S467.2,247.2,467.5,247.5z"/>
			<polygon class="st0" points="467.3,253.7 467.3,269.3 465.5,269.3 465.5,254 			"/>
			<path class="st0" d="M452.4,244.6v24.8h-1.8l-0.1-1.3c-0.8,0.6-1.8,1-2.6,1.3c-1,0.3-1.8,0.4-2.8,0.4c-1.4,0-2.5-0.3-3.5-1
				c-1-0.7-1.7-1.5-2.1-2.6c-0.4-1.1-0.7-2.4-0.7-3.9c0-1.7,0.3-3.2,1-4.6c0.7-1.3,1.5-2.4,2.8-3.1c1.3-0.7,2.5-1.1,4.2-1.1
				c1.3,0,2.5,0.3,3.8,0.7v-9.3L452.4,244.6z M450.5,266.8v-10.7c-1.3-0.4-2.4-0.7-3.6-0.7c-1.2,0-2.4,0.3-3.2,0.8
				c-1,0.6-1.7,1.4-2.1,2.4c-0.6,1.1-0.7,2.4-0.7,3.8c-0.3,1.7,0.1,3.1,1,4.2c0.8,1.1,2,1.7,3.6,1.7c1,0,1.8-0.1,2.6-0.4
				C448.9,267.6,449.8,267.2,450.5,266.8z"/>
			<polygon class="st0" points="434.5,50.7 416.8,68.4 398.7,50.7 416.4,33.1 			"/>
			<path class="st0" d="M428.6,260.1c-0.2,0.8-0.2,1.4-0.3,1.8h-11.4c0,2.2,0.4,3.8,1.4,4.9c1,1.1,2.1,1.5,3.8,1.5
				c0.7,0,1.4-0.1,2.1-0.3c0.6-0.1,1.1-0.3,1.5-0.6c0.4-0.3,1-0.6,1.5-1l0.7,1.4c-0.8,0.6-1.8,1.1-2.8,1.4c-1,0.3-2,0.6-3.2,0.6
				c-2.1,0-3.8-0.7-5-2c-1.3-1.3-1.8-3.3-1.8-6.1c0-1.4,0.3-2.6,0.8-3.9c0.6-1.3,1.4-2.2,2.4-3.1c1.1-0.8,2.4-1.1,4-1.1
				c1.4,0,2.5,0.3,3.5,0.8c1,0.6,1.5,1.4,2.1,2.4C428.3,257.8,428.6,258.9,428.6,260.1z M426.4,260.6v-0.4c0-1.5-0.4-2.8-1.1-3.6
				c-0.7-0.8-1.8-1.3-3.2-1.3c-1-0.1-2,0.2-2.7,0.7c-0.7,0.6-1.3,1.1-1.7,2c-0.4,0.8-0.7,1.7-0.8,2.6H426.4z"/>
			<path class="st0" d="M402.4,246.3v23.3h-2v-20.1c-0.4,0.8-0.8,1.7-1.3,2.6l-7,13.2H390l-6.8-13.2l-0.4-0.7
				c-0.4-0.7-0.7-1.4-1-1.8v19.9h-2v-23.3h2.4l7.1,13.5l0.6,1c0.7,1.3,1.1,2.1,1.4,2.8c0.3-0.6,0.4-1.1,0.8-1.7c0.3-0.7,0.7-1.3,1-2
				l7.2-13.5H402.4z"/>
			<path class="st0" d="M367.7,260.1c-0.3,0.8-0.3,1.4-0.3,1.8H356c0,2.2,0.4,3.8,1.4,4.9c1,1.1,2.1,1.5,3.8,1.5
				c0.7,0,1.4-0.1,2.1-0.3c0.6-0.1,1.1-0.3,1.5-0.6c0.4-0.3,1-0.6,1.5-1l0.7,1.4c-0.8,0.6-1.8,1.1-2.8,1.4c-1,0.3-2,0.6-3.2,0.6
				c-2.1,0-3.8-0.7-5-2c-1.3-1.3-1.8-3.3-1.8-6.1c0-1.4,0.3-2.6,0.8-3.9c0.6-1.3,1.4-2.2,2.4-3.1c1.1-0.8,2.4-1.1,4-1.1
				c1.4,0,2.5,0.3,3.5,0.8s1.5,1.4,2.1,2.4C367.4,257.8,367.7,258.9,367.7,260.1z M365.5,260.6v-0.4c0-1.5-0.4-2.8-1.1-3.6
				c-0.7-0.8-1.8-1.3-3.2-1.3c-0.9-0.1-1.8,0.2-2.7,0.7c-0.7,0.6-1.3,1.1-1.7,2c-0.4,0.9-0.7,1.7-0.8,2.6H365.5z"/>
			<path class="st1" d="M453,96.6c-8.9-8.9-20.2-13.4-33.6-13.4c-14.3,0-25.8,4.4-34.5,13.3c-8.9,8.9-13.4,20.8-13.4,35.4
				c0,7.6,2.5,16.9,7.5,27.9h-14.8v-0.1h-10.9V131c0-14.2-4.2-25.5-12.3-34.1c-8.1-8.7-18.5-13-31.5-13c-13.8,0-25.1,4.7-34.1,14.1
				s-13.5,21.4-13.5,35.9c0,14.7,4.4,26.6,13,35.5c8.6,8.9,20.2,13.4,34.4,13.4H331c-1.5,8.8-6.9,15.2-16.4,19.1
				c-9.5,4-23.4,6-41.7,6l2.4,18.4c49.3,0,75.2-14.5,77.6-43.3h56.6c17.7,0,31.5-4.6,41.7-14.1c10.2-9.4,15.2-22.3,15.2-38.7
				C466.4,116.7,461.9,105.5,453,96.6z M331.1,160.1c-0.8,0-3.9,0.2-8.9,0.3c-5,0.2-8.6,0.3-10.7,0.3c-9,0-16.2-2.4-21.7-7.1
				c-5.5-4.7-8.1-11.4-8.1-20.3c0-7.9,2.4-14.3,7.1-19.3c4.9-5,11.1-7.5,18.3-7.5c7.1,0,12.8,2.4,17.3,7.1
				c4.5,4.7,6.7,11.2,6.7,19.1V160.1z M435.2,152c-6,5.2-14.4,7.8-24.8,7.8l-9.2-0.1c-5.7-10-8.5-19.5-8.5-28.7
				c0-7.4,2.5-13.6,7.5-18.8c5.1-5.2,11.2-7.8,18.3-7.8c7.4,0,13.5,2.5,18.4,7.4c4.9,4.9,7.4,11.2,7.4,18.7
				C444.3,139.6,441.2,146.8,435.2,152z"/>
			<path class="st0" d="M343.8,260.1c-0.2,0.8-0.2,1.4-0.3,1.8h-11.4c0,2.2,0.4,3.8,1.4,4.9c1,1.1,2.1,1.5,3.8,1.5
				c0.7,0,1.4-0.1,2.1-0.3c0.6-0.1,1.1-0.3,1.5-0.6c0.4-0.3,1-0.6,1.5-1l0.7,1.4c-0.8,0.6-1.8,1.1-2.8,1.4c-1,0.3-2,0.6-3.2,0.6
				c-2.1,0-3.8-0.7-5-2c-1.3-1.3-1.8-3.3-1.8-6.1c0-1.4,0.3-2.6,0.8-3.9c0.6-1.3,1.4-2.2,2.4-3.1c1.1-0.8,2.4-1.1,4-1.1
				c1.4,0,2.5,0.3,3.5,0.8s1.5,1.4,2.1,2.4C343.5,257.8,343.8,258.9,343.8,260.1z M341.8,260.6v-0.4c0-1.5-0.4-2.8-1.1-3.6
				c-0.7-0.8-1.8-1.3-3.2-1.3c-1.1-0.1-2,0.2-2.7,0.7c-0.7,0.6-1.3,1.1-1.7,2s-0.7,1.7-0.8,2.6H341.8z"/>
			<path class="st0" d="M319.4,263.2c0,1.1-0.3,2.2-0.8,3.2s-1.5,1.7-2.8,2.2c-1.3,0.6-2.9,0.8-4.9,0.8h-7.5v-23.1h7.4
				c1.5,0,2.9,0.3,4.2,0.7c1.1,0.4,2.1,1.1,2.6,2c0.6,0.8,1,2,1,3.2c0,1.3-0.4,2.4-1.1,3.3c-0.7,1-2,1.7-3.5,2.1
				c1.8,0.1,3.1,0.8,4,1.8C319,260.4,319.4,261.6,319.4,263.2z M315.9,266.5c1-0.8,1.5-2,1.5-3.3c0-1.5-0.6-2.6-1.5-3.5
				c-1.1-0.8-2.5-1.3-4.6-1.3h-5.9v9.3h5.9C313.4,267.9,314.9,267.4,315.9,266.5z M316.5,252.1c0-0.8-0.1-1.5-0.6-2.1
				c-0.4-0.6-1-1.1-1.8-1.5c-0.8-0.4-1.8-0.6-2.9-0.6h-5.8v8.9h5.2c1.7,0,3.1-0.4,4.2-1.1C315.9,255,316.5,253.7,316.5,252.1z"/>
			<path class="st0" d="M273.1,258.4v11.1h-1.8v-10.3c0-1.4-0.3-2.4-0.7-2.9c-0.4-0.6-1.3-0.8-2.4-0.8c-1.4,0-3.1,0.6-5.2,1.5
				c0.1,0.4,0.1,1,0.1,1.5v11.1h-1.8v-10.3c0-1-0.1-1.7-0.3-2.2c-0.1-0.6-0.6-1-1-1.3s-1.1-0.4-1.8-0.4c-0.7,0-1.5,0.1-2.5,0.4
				c-0.8,0.3-1.7,0.6-2.5,1v12.7h-1.8V254l1.8-0.3v1.5c2-1.1,3.8-1.7,5.4-1.7c0.8,0,1.5,0.1,2.2,0.4c0.7,0.3,1.3,0.7,1.7,1.4
				c1-0.6,2-1,3.1-1.3c1.1-0.4,2.1-0.6,3.1-0.6c1.2,0.4,2.2,0.7,3.1,1.4C272.6,255.5,273.1,256.8,273.1,258.4z"/>
			<polygon class="st0" points="259.2,50.9 241.5,68.6 224.7,52.3 224.7,49.5 241.2,33.3 			"/>
			<path class="st0" d="M238.9,257.6c0.6,1.3,0.8,2.6,0.8,4.2c0,1.8-0.3,3.3-1,4.6c-0.7,1.3-1.5,2.1-2.8,2.6
				c-1.1,0.6-2.5,0.8-3.9,0.8c-1.6,0.1-3-0.3-3.9-1c-1.1-0.7-2-1.7-2.4-2.9c-0.6-1.3-0.8-2.6-0.8-4.2c0-1.8,0.3-3.3,1-4.6
				c0.7-1.3,1.7-2.1,2.8-2.6c1.1-0.6,2.4-0.8,3.9-0.8s2.9,0.3,3.9,1S238.5,256.4,238.9,257.6z M237.8,261.9c0-1.9-0.4-3.5-1.4-4.7
				c-0.8-1.1-2.2-1.8-4.2-1.8s-3.3,0.6-4.3,1.7s-1.4,2.8-1.4,4.7c0,1.9,0.4,3.6,1.4,4.7s2.4,1.8,4.2,1.8c1.8,0,3.3-0.6,4.3-1.7
				S237.8,263.8,237.8,261.9z"/>
			<polygon class="st0" points="224.7,49.5 224.7,52.3 208.4,68.6 190.4,50.9 208.1,33.3 			"/>
			<path class="st0" d="M215.5,253.9l-0.4,2c-0.7-0.3-1.3-0.3-1.8-0.3c-0.8,0-1.7,0.3-2.4,0.7c-0.7,0.6-1.4,1.3-2,2.4v10.7h-1.8
				v-15.5l1.8-0.3v2.5c0.6-1,1.3-1.5,2.1-2.1c0.8-0.4,1.5-0.7,2.5-0.7c0.5,0.5,0.8,0.5,1,0.5C214.8,253.8,215.2,253.9,215.5,253.9z"
				/>
			<path class="st0" d="M198.6,245.1l-0.6,1.5c-0.6-0.1-1-0.3-1.4-0.4c-0.4-0.1-0.8-0.1-1.4-0.1c-1.1,0.2-2,0.6-2.5,1.1
				c-0.6,0.7-0.8,1.7-0.8,2.8v4h5.2l-0.1,1.5h-5v13.9h-1.8v-13.9h-3.5V254h3.2v-3.8c0-1.1,0.1-2.1,0.7-2.9c0.4-0.8,1-1.4,1.8-2
				c0.8-0.4,1.7-0.7,2.8-0.7c0.6,0,1.3,0,1.7,0.1C197.5,244.8,198,245,198.6,245.1z"/>
			<path class="st1" d="M215.1,85.1v51c0,15.8-7.4,23.7-22.4,23.6h-15.9c-0.3,0-0.6,0-0.8,0.1l-10.2-0.1V131
				c0-9.4-1.8-17.6-5.5-24.5c-0.1-0.1-0.1-0.3-0.2-0.4c-1.8-3.3-4-6.4-6.6-9.2c-0.9-1-1.8-1.9-2.8-2.8h-11.3l-6.5-9.1
				c-3.4-0.8-7-1.1-10.8-1.1c-5.7,0-11,0.8-15.8,2.4l-5.6,7.9h-8.5c-1.4,1.2-2.8,2.5-4.1,3.8c-3.3,3.4-6,7.2-8,11.3v49.5
				c2,3.9,4.5,7.4,7.5,10.6c3.3,3.4,6.9,6.1,11,8.2c6.7,3.5,14.5,5.2,23.4,5.2h21.7c-1.5,8.8-6.9,15.2-16.4,19.1
				c-9.5,4-23.4,6-41.7,6l2.4,18.4c49.3,0,75.2-14.5,77.6-43.3h11.3c0.3,0,0.5,0,0.8-0.1h14.8c14.7,0,25.7-3.5,33.2-10.3
				c7.3-6.9,11.1-16.7,11.1-29.7V82L215.1,85.1z M143.6,160.1c-0.8,0-3.9,0.2-8.9,0.3c-5,0.2-8.6,0.3-10.7,0.3
				c-9,0-16.2-2.4-21.7-7.1c-5.5-4.7-8.1-11.4-8.1-20.3c0-7.9,2.4-14.3,7.1-19.3c4.9-5,11.1-7.5,18.3-7.5c7.1,0,12.8,2.4,17.3,7.1
				c4.5,4.7,6.7,11.2,6.7,19.1V160.1z M145.4,112.7c-2.5,0-4.6-2.1-4.6-4.6c0-2.5,2.1-4.6,4.6-4.6c2.5,0,4.6,2.1,4.6,4.6
				C150,110.6,147.9,112.7,145.4,112.7z"/>
			<path class="st1" d="M74.4,133.9c0-9.2,1.9-17.4,5.5-24.6v49.5C76.3,151.7,74.4,143.4,74.4,133.9z"/>
			<path class="st1" d="M160.3,106v0.5c-0.1-0.1-0.1-0.3-0.2-0.4c-1.8-3.3-4-6.4-6.6-9.2C156.2,99.7,158.4,102.7,160.3,106z"/>
			<path class="st0" d="M159.4,257.6c0.6,1.3,0.8,2.6,0.8,4.2c0,1.8-0.3,3.3-1,4.6c-0.7,1.3-1.5,2.1-2.8,2.6
				c-1.1,0.6-2.5,0.8-3.9,0.8c-1.5,0.1-2.7-0.3-3.9-1c-1.1-0.7-2-1.7-2.4-2.9c-0.6-1.3-0.8-2.6-0.8-4.2c0-1.8,0.3-3.3,1-4.6
				c0.7-1.3,1.7-2.1,2.8-2.6c1.1-0.6,2.4-0.8,3.9-0.8s2.9,0.3,3.9,1S159,256.4,159.4,257.6z M158.4,261.9c0-1.9-0.4-3.5-1.4-4.7
				c-0.8-1.1-2.2-1.8-4.2-1.8s-3.3,0.6-4.3,1.7s-1.4,2.8-1.4,4.7c0,1.9,0.4,3.6,1.4,4.7s2.4,1.8,4.2,1.8s3.3-0.6,4.3-1.7
				S158.4,263.8,158.4,261.9z"/>
			<circle class="st2" cx="145.4" cy="108.1" r="4.6"/>
			<path class="st0" d="M135.4,267.5l0.6,1.5c-1.1,0.6-2.2,0.8-3.5,0.8c-1.5,0-2.6-0.4-3.3-1.4c-0.8-0.8-1.1-2.1-1.1-3.8v-9.2h-3.4
				v-1.5h3.3v-3.5l1.8-0.3v3.9h5.7l-0.3,1.5h-5.4v8.9c0,1.3,0.3,2.2,0.7,2.8c0.4,0.7,1.1,1,2.1,1
				C133.4,268.2,134.4,267.9,135.4,267.5z"/>
			<path class="st1" d="M132.9,85c-3.4-0.8-7-1.1-10.8-1.1h10L132.9,85z"/>
			<circle class="st0" cx="120.6" cy="134.5" r="12.3"/>
			<path class="st1" d="M122.1,83.9c-5.7,0-11,0.8-15.8,2.4l1.7-2.4H122.1z"/>
			<path class="st0" d="M114.9,257.6c0.6,1.3,0.8,2.6,0.8,4.2c0,1.8-0.3,3.3-1,4.6c-0.7,1.3-1.5,2.1-2.8,2.6
				c-1.1,0.6-2.5,0.8-3.9,0.8c-1.6,0.1-2.8-0.3-3.9-1c-1.1-0.7-2-1.7-2.4-2.9c-0.6-1.3-0.8-2.6-0.8-4.2c0-1.8,0.3-3.3,1-4.6
				c0.7-1.3,1.7-2.1,2.8-2.6c1.1-0.6,2.4-0.8,3.9-0.8s2.9,0.3,3.9,1S114.5,256.4,114.9,257.6z M113.8,261.9c0-1.9-0.4-3.5-1.4-4.7
				c-0.8-1.1-2.2-1.8-4.2-1.8s-3.3,0.6-4.3,1.7s-1.4,2.8-1.4,4.7c0,1.9,0.4,3.6,1.4,4.7s2.4,1.8,4.2,1.8c1.8,0,3.3-0.6,4.3-1.7
				S113.8,263.8,113.8,261.9z"/>
			<path class="st0" d="M89.2,258.6v10.9h-1.8v-10.3c0-1-0.1-1.7-0.3-2.4c-0.3-0.6-0.6-1-1.1-1.3c-0.6-0.3-1.3-0.4-2.1-0.4
				c-0.8,0-1.8,0.1-2.6,0.4c-1,0.3-1.8,0.6-2.8,1v12.7h-1.8v-24.4l1.8-0.3v10.7c1-0.4,2-0.8,2.9-1.1c1-0.3,2.1-0.4,3.1-0.4
				c1.2,0.1,2.3,0.4,3.3,1.1S89.2,256.8,89.2,258.6z"/>
			<path class="st0" d="M63.8,249.5c0.7,1,1,2.2,1,3.6c0,1.3-0.3,2.5-1,3.6c-0.7,1.1-1.5,2-2.9,2.6c-1.3,0.7-2.9,1-4.7,1h-4.6v9.1
				h-2v-23.1h7.1c1.7,0,3.1,0.2,4.3,0.8C62.3,247.7,63.2,248.5,63.8,249.5z M62.1,256c0.6-0.8,0.7-1.7,0.7-2.8
				c0-1.7-0.6-2.9-1.5-3.9c-1.1-1-2.6-1.4-4.6-1.4h-5.2v10.7h4.6c1.4,0.1,2.7-0.2,3.8-0.6C60.9,257.4,61.7,256.9,62.1,256z"/>
		</g>
	</g>
	<path class="st1" d="M79.9,109.3c0,0-12.6,24.5,0,49.5s7.3-32.5,7.3-32.5L79.9,109.3z"/>
</g>
<g id="Layer_2">
</g>
</svg>
