<?xml version="1.0" encoding="utf-8"?>
<!-- Generator: Adobe Illustrator 21.0.0, SVG Export Plug-In . SVG Version: 6.00 Build 0)  -->
<svg version="1.1" id="Layer_1" xmlns="http://www.w3.org/2000/svg" xmlns:xlink="http://www.w3.org/1999/xlink" x="0px" y="0px"
	 viewBox="0 0 541 303" style="enable-background:new 0 0 541 303;" xml:space="preserve">
<style type="text/css">
	.st0{fill:#FFFFFF;}
	.st1{fill:#383838;}
</style>
<g>
	<g>
		<path class="st0" d="M61,247.1c1.3,0.6,2.2,1.4,2.8,2.4c0.7,1,1,2.2,1,3.6c0,1.3-0.3,2.5-1,3.6c-0.7,1.1-1.5,2-2.9,2.6
			c-1.3,0.7-2.9,1-4.7,1h-4.6v9.1h-2v-23.1h7.1C58.4,246.3,59.8,246.5,61,247.1z M59.9,258c1-0.6,1.8-1.1,2.2-2
			c0.6-0.8,0.7-1.7,0.7-2.8c0-1.7-0.6-2.9-1.5-3.9c-1.1-1-2.6-1.4-4.6-1.4h-5.2v10.7h4.6C57.5,258.7,58.8,258.4,59.9,258z"/>
		<path class="st0" d="M87.8,254.8c1,0.7,1.4,2,1.4,3.8v10.9h-1.8v-10.3c0-1-0.1-1.7-0.3-2.4c-0.3-0.6-0.6-1-1.1-1.3
			c-0.6-0.3-1.3-0.4-2.1-0.4s-1.8,0.1-2.6,0.4c-1,0.3-1.8,0.6-2.8,1v12.7h-1.8v-24.4l1.8-0.3v10.7c1-0.4,2-0.8,2.9-1.1
			c1-0.3,2.1-0.4,3.1-0.4C85.7,253.8,86.8,254.1,87.8,254.8z"/>
		<path class="st0" d="M104.1,268.8c-1.1-0.7-2-1.7-2.4-2.9c-0.6-1.3-0.8-2.6-0.8-4.2c0-1.8,0.3-3.3,1-4.6c0.7-1.3,1.7-2.1,2.8-2.6
			c1.1-0.6,2.4-0.8,3.9-0.8s2.9,0.3,3.9,1s2,1.7,2.4,2.9c0.6,1.3,0.8,2.6,0.8,4.2c0,1.8-0.3,3.3-1,4.6c-0.7,1.3-1.5,2.1-2.8,2.6
			c-1.1,0.6-2.5,0.8-3.9,0.8C106.4,269.9,105.2,269.5,104.1,268.8z M112.4,266.6c1-1.1,1.4-2.8,1.4-4.7s-0.4-3.5-1.4-4.7
			c-0.8-1.1-2.2-1.8-4.2-1.8s-3.3,0.6-4.3,1.7s-1.4,2.8-1.4,4.7s0.4,3.6,1.4,4.7s2.4,1.8,4.2,1.8S111.4,267.7,112.4,266.6z"/>
		<path class="st0" d="M136,269c-1.1,0.6-2.2,0.8-3.5,0.8c-1.5,0-2.6-0.4-3.3-1.4c-0.8-0.8-1.1-2.1-1.1-3.8v-9.2h-3.4v-1.5h3.3v-3.5
			l1.8-0.3v3.9h5.7l-0.3,1.5h-5.4v8.9c0,1.3,0.3,2.2,0.7,2.8c0.4,0.7,1.1,1,2.1,1c0.8,0,1.8-0.3,2.8-0.7L136,269z"/>
		<path class="st0" d="M148.6,268.8c-1.1-0.7-2-1.7-2.4-2.9c-0.6-1.3-0.8-2.6-0.8-4.2c0-1.8,0.3-3.3,1-4.6c0.7-1.3,1.7-2.1,2.8-2.6
			c1.1-0.6,2.4-0.8,3.9-0.8s2.9,0.3,3.9,1s2,1.7,2.4,2.9c0.6,1.3,0.8,2.6,0.8,4.2c0,1.8-0.3,3.3-1,4.6c-0.7,1.3-1.5,2.1-2.8,2.6
			c-1.1,0.6-2.5,0.8-3.9,0.8C151,269.9,149.8,269.5,148.6,268.8z M157,266.6c1-1.1,1.4-2.8,1.4-4.7s-0.4-3.5-1.4-4.7
			c-0.8-1.1-2.2-1.8-4.2-1.8s-3.3,0.6-4.3,1.7s-1.4,2.8-1.4,4.7s0.4,3.6,1.4,4.7s2.4,1.8,4.2,1.8S156,267.7,157,266.6z"/>
		<path class="st0" d="M192.7,247.2c-0.6,0.7-0.8,1.7-0.8,2.8v4h5.2l-0.1,1.5h-5v13.9h-1.8v-13.9h-3.5V254h3.2v-3.8
			c0-1.1,0.1-2.1,0.7-2.9c0.4-0.8,1-1.4,1.8-2c0.8-0.4,1.7-0.7,2.8-0.7c0.6,0,1.3,0,1.7,0.1c0.6,0.1,1.1,0.3,1.7,0.4l-0.6,1.5
			c-0.6-0.1-1-0.3-1.4-0.4s-0.8-0.1-1.4-0.1C194.1,246.3,193.2,246.7,192.7,247.2z"/>
		<path class="st0" d="M214.5,253.8c0.3,0,0.7,0.1,1,0.1l-0.4,2c-0.7-0.3-1.3-0.3-1.8-0.3c-0.8,0-1.7,0.3-2.4,0.7
			c-0.7,0.6-1.4,1.3-2,2.4v10.7h-1.8v-15.5l1.8-0.3v2.5c0.6-1,1.3-1.5,2.1-2.1c0.8-0.4,1.5-0.7,2.5-0.7
			C214,253.8,214.3,253.8,214.5,253.8z"/>
		<path class="st0" d="M228.1,268.8c-1.1-0.7-2-1.7-2.4-2.9c-0.6-1.3-0.8-2.6-0.8-4.2c0-1.8,0.3-3.3,1-4.6c0.7-1.3,1.7-2.1,2.8-2.6
			c1.1-0.6,2.4-0.8,3.9-0.8s2.9,0.3,3.9,1s2,1.7,2.4,2.9c0.6,1.3,0.8,2.6,0.8,4.2c0,1.8-0.3,3.3-1,4.6c-0.7,1.3-1.5,2.1-2.8,2.6
			c-1.1,0.6-2.5,0.8-3.9,0.8C230.4,269.9,229,269.5,228.1,268.8z M236.4,266.6c1-1.1,1.4-2.8,1.4-4.7s-0.4-3.5-1.4-4.7
			c-0.8-1.1-2.2-1.8-4.2-1.8s-3.3,0.6-4.3,1.7s-1.4,2.8-1.4,4.7s0.4,3.6,1.4,4.7s2.4,1.8,4.2,1.8S235.4,267.7,236.4,266.6z"/>
		<path class="st0" d="M271.8,254.8c0.8,0.7,1.3,2,1.3,3.6v11.1h-1.8v-10.3c0-1.4-0.3-2.4-0.7-2.9c-0.4-0.6-1.3-0.8-2.4-0.8
			c-1.4,0-3.1,0.6-5.2,1.5c0.1,0.4,0.1,1,0.1,1.5v11.1h-1.8v-10.3c0-1-0.1-1.7-0.3-2.2c-0.1-0.6-0.6-1-1-1.3s-1.1-0.4-1.8-0.4
			c-0.7,0-1.5,0.1-2.5,0.4c-0.8,0.3-1.7,0.6-2.5,1v12.7h-1.8V254l1.8-0.3v1.5c2-1.1,3.8-1.7,5.4-1.7c0.8,0,1.5,0.1,2.2,0.4
			s1.3,0.7,1.7,1.4c1-0.6,2-1,3.1-1.3c1.1-0.4,2.1-0.6,3.1-0.6C269.9,253.8,270.9,254.1,271.8,254.8z"/>
		<path class="st0" d="M318,259.4c1,1,1.4,2.2,1.4,3.8c0,1.1-0.3,2.2-0.8,3.2s-1.5,1.7-2.8,2.2c-1.3,0.6-2.9,0.8-4.9,0.8h-7.5v-23.1
			h7.4c1.5,0,2.9,0.3,4.2,0.7c1.1,0.4,2.1,1.1,2.6,2c0.6,0.8,1,2,1,3.2c0,1.3-0.4,2.4-1.1,3.3c-0.7,1-2,1.7-3.5,2.1
			C315.8,257.7,317.1,258.4,318,259.4z M305.4,247.9v8.9h5.2c1.7,0,3.1-0.4,4.2-1.1s1.7-2,1.7-3.6c0-0.8-0.1-1.5-0.6-2.1
			c-0.4-0.6-1-1.1-1.8-1.5s-1.8-0.6-2.9-0.6L305.4,247.9L305.4,247.9z M315.9,266.5c1-0.8,1.5-2,1.5-3.3c0-1.5-0.6-2.6-1.5-3.5
			c-1.1-0.8-2.5-1.3-4.6-1.3h-5.9v9.3h5.9C313.4,267.9,314.9,267.4,315.9,266.5z"/>
		<path class="st0" d="M343.5,261.9h-11.4c0,2.2,0.4,3.8,1.4,4.9s2.1,1.5,3.8,1.5c0.7,0,1.4-0.1,2.1-0.3c0.6-0.1,1.1-0.3,1.5-0.6
			c0.4-0.3,1-0.6,1.5-1l0.7,1.4c-0.8,0.6-1.8,1.1-2.8,1.4s-2,0.6-3.2,0.6c-2.1,0-3.8-0.7-5-2c-1.3-1.3-1.8-3.3-1.8-6.1
			c0-1.4,0.3-2.6,0.8-3.9c0.6-1.3,1.4-2.2,2.4-3.1c1.1-0.8,2.4-1.1,4-1.1c1.4,0,2.5,0.3,3.5,0.8s1.5,1.4,2.1,2.4
			c0.4,1,0.7,2.1,0.7,3.3C343.6,260.9,343.6,261.5,343.5,261.9z M334.8,256c-0.7,0.6-1.3,1.1-1.7,2s-0.7,1.7-0.8,2.6h9.5v-0.4
			c0-1.5-0.4-2.8-1.1-3.6c-0.7-0.8-1.8-1.3-3.2-1.3C336.4,255.2,335.5,255.5,334.8,256z"/>
		<path class="st0" d="M367.4,261.9H356c0,2.2,0.4,3.8,1.4,4.9s2.1,1.5,3.8,1.5c0.7,0,1.4-0.1,2.1-0.3c0.6-0.1,1.1-0.3,1.5-0.6
			c0.4-0.3,1-0.6,1.5-1l0.7,1.4c-0.8,0.6-1.8,1.1-2.8,1.4s-2,0.6-3.2,0.6c-2.1,0-3.8-0.7-5-2c-1.3-1.3-1.8-3.3-1.8-6.1
			c0-1.4,0.3-2.6,0.8-3.9c0.6-1.3,1.4-2.2,2.4-3.1c1.1-0.8,2.4-1.1,4-1.1c1.4,0,2.5,0.3,3.5,0.8s1.5,1.4,2.1,2.4
			c0.4,1,0.7,2.1,0.7,3.3C367.4,260.9,367.4,261.5,367.4,261.9z M358.5,256c-0.7,0.6-1.3,1.1-1.7,2s-0.7,1.7-0.8,2.6h9.5v-0.4
			c0-1.5-0.4-2.8-1.1-3.6c-0.7-0.8-1.8-1.3-3.2-1.3C360.3,255.2,359.4,255.5,358.5,256z"/>
		<path class="st0" d="M402.4,246.3v23.3h-2v-20.1c-0.4,0.8-0.8,1.7-1.3,2.6l-7,13.2H390l-6.8-13.2l-0.4-0.7c-0.4-0.7-0.7-1.4-1-1.8
			v19.9h-2v-23.3h2.4l7.1,13.5l0.6,1c0.7,1.3,1.1,2.1,1.4,2.8c0.3-0.6,0.4-1.1,0.8-1.7c0.3-0.7,0.7-1.3,1-2l7.2-13.5L402.4,246.3
			L402.4,246.3L402.4,246.3z"/>
		<path class="st0" d="M428.3,261.9h-11.4c0,2.2,0.4,3.8,1.4,4.9s2.1,1.5,3.8,1.5c0.7,0,1.4-0.1,2.1-0.3c0.6-0.1,1.1-0.3,1.5-0.6
			c0.4-0.3,1-0.6,1.5-1l0.7,1.4c-0.8,0.6-1.8,1.1-2.8,1.4s-2,0.6-3.2,0.6c-2.1,0-3.8-0.7-5-2c-1.3-1.3-1.8-3.3-1.8-6.1
			c0-1.4,0.3-2.6,0.8-3.9c0.6-1.3,1.4-2.2,2.4-3.1c1.1-0.8,2.4-1.1,4-1.1c1.4,0,2.5,0.3,3.5,0.8c1,0.6,1.5,1.4,2.1,2.4
			c0.4,1,0.7,2.1,0.7,3.3C428.4,260.9,428.4,261.5,428.3,261.9z M419.4,256c-0.7,0.6-1.3,1.1-1.7,2c-0.4,0.8-0.7,1.7-0.8,2.6h9.5
			v-0.4c0-1.5-0.4-2.8-1.1-3.6c-0.7-0.8-1.8-1.3-3.2-1.3C421.1,255.2,420.1,255.5,419.4,256z"/>
		<path class="st0" d="M452.4,244.6v24.8h-1.8l-0.1-1.3c-0.8,0.6-1.8,1-2.6,1.3c-1,0.3-1.8,0.4-2.8,0.4c-1.4,0-2.5-0.3-3.5-1
			s-1.7-1.5-2.1-2.6s-0.7-2.4-0.7-3.9c0-1.7,0.3-3.2,1-4.6c0.7-1.3,1.5-2.4,2.8-3.1s2.5-1.1,4.2-1.1c1.3,0,2.5,0.3,3.8,0.7v-9.3
			L452.4,244.6z M441.9,266.6c0.8,1.1,2,1.7,3.6,1.7c1,0,1.8-0.1,2.6-0.4c0.8-0.3,1.7-0.7,2.4-1.1v-10.7c-1.3-0.4-2.4-0.7-3.6-0.7
			s-2.4,0.3-3.2,0.8c-1,0.6-1.7,1.4-2.1,2.4c-0.6,1.1-0.7,2.4-0.7,3.8C440.6,264.1,441,265.5,441.9,266.6z"/>
		<path class="st0" d="M465.5,249.5c-0.3-0.3-0.4-0.6-0.4-1s0.1-0.7,0.4-1s0.6-0.4,1-0.4s0.7,0.1,1,0.4s0.4,0.6,0.4,1
			s-0.1,0.7-0.4,1s-0.6,0.4-1,0.4C466.1,249.9,465.9,249.7,465.5,249.5z M465.5,269.5V254l1.8-0.3v15.6h-1.8V269.5z"/>
		<path class="st0" d="M491.4,258.8v10.7h-1.7l-0.1-1.7c-0.8,0.7-1.8,1.3-2.9,1.5s-2.1,0.6-3.1,0.6s-1.8-0.1-2.5-0.6
			c-0.7-0.3-1.3-0.8-1.7-1.4s-0.6-1.3-0.6-2.1c0-2,1-3.3,2.9-4.3c2-1,4.5-1.4,7.7-1.5v-1.1c0-1.3-0.3-2.1-0.8-2.8
			c-0.6-0.6-1.4-1-2.5-1c-0.8,0-1.8,0.1-2.8,0.4s-2,0.8-2.9,1.5l-0.8-1.4c2.1-1.5,4.5-2.2,6.8-2.2
			C489.8,253.8,491.4,255.5,491.4,258.8z M481.5,267.6c0.6,0.4,1.3,0.7,2.4,0.7c1,0,2-0.1,2.8-0.6c0.8-0.4,1.8-0.8,2.8-1.5v-4.6
			c-2.6,0-4.7,0.4-6.3,1.1c-1.7,0.7-2.4,1.7-2.4,3.1C480.9,266.5,481.1,267.2,481.5,267.6z"/>
	</g>
	<g>
		<path class="st0" d="M176.7,159.8L176.7,159.8l-10.9-0.1V131c0-9.6-1.9-17.9-5.7-24.9c-1.8-3.3-4-6.4-6.6-9.2
			c-0.9-1-1.8-1.9-2.8-2.8h-11.3l-6.5-9.1c-3.4-0.8-7-1.1-10.8-1.1c-5.7,0-11,0.8-15.8,2.4l-5.6,7.9h-8.5c-1.4,1.2-2.8,2.5-4.1,3.8
			c-3.3,3.4-6,7.2-8,11.3v49.5c2,3.9,4.5,7.4,7.5,10.6c3.3,3.4,6.9,6.1,11,8.2c6.7,3.5,14.5,5.2,23.4,5.2h21.7
			c-1.5,8.8-6.9,15.2-16.4,19.1c-9.5,4-23.4,6-41.7,6l2.4,18.4c49.3,0,75.2-14.5,77.6-43.3h11.3c0.3,0,0.5,0,0.8-0.1
			c0.8-0.2,1.2-0.8,1.2-1.9v-19.4C178.7,160.4,178.1,159.8,176.7,159.8z M94.2,133.3c0-7.9,2.4-14.3,7.1-19.3
			c4.9-5,11.1-7.5,18.3-7.5c7.1,0,12.8,2.4,17.3,7.1c4.5,4.7,6.7,11.2,6.7,19.1v27.4c-0.8,0-3.9,0.2-8.9,0.3
			c-5,0.2-8.6,0.3-10.7,0.3c-9,0-16.2-2.4-21.7-7.1C96.8,148.9,94.2,142.2,94.2,133.3z"/>
		<path class="st0" d="M79.9,109.3v49.5c-3.6-7.1-5.5-15.4-5.5-24.9C74.4,124.7,76.3,116.5,79.9,109.3z"/>
		<path class="st0" d="M215.1,136.1v-51l21.7-3.1v60.9c0,13-3.8,22.8-11.1,29.7c-7.5,6.8-18.5,10.3-33.2,10.3h-15.8
			c-1.4,0-2-0.7-2-2l0.1-19.4c0-1.3,0.7-1.8,2-1.8h15.9C207.7,159.8,215.1,151.9,215.1,136.1z M241.2,33.3l18,17.6l-17.7,17.7
			l-16.8-16.3l-16.3,16.3l-18-17.7l17.7-17.6l16.6,16.2L241.2,33.3z"/>
		<path class="st0" d="M364.2,159.8c1.4,0,2,0.6,2,1.8V181c0,1.4-0.7,2-2,2h-11.3c-2.4,28.8-28.3,43.3-77.6,43.3l-2.4-18.4
			c18.3,0,32.2-2,41.7-6c9.5-3.9,14.9-10.3,16.4-19.1h-21.7c-14.2,0-25.8-4.5-34.4-13.4s-13-20.8-13-35.5c0-14.5,4.5-26.5,13.5-35.9
			s20.3-14.1,34.1-14.1c13,0,23.4,4.3,31.5,13c8.1,8.6,12.3,19.9,12.3,34.1v28.7h10.9V159.8z M281.7,133.3c0,8.9,2.6,15.6,8.1,20.3
			s12.7,7.1,21.7,7.1c2.1,0,5.7-0.1,10.7-0.3c5-0.1,8.1-0.3,8.9-0.3v-27.4c0-7.9-2.2-14.4-6.7-19.1c-4.5-4.7-10.2-7.1-17.3-7.1
			c-7.2,0-13.4,2.5-18.3,7.5C284.1,119,281.7,125.4,281.7,133.3z"/>
		<path class="st0" d="M419.4,83.2c13.4,0,24.7,4.5,33.6,13.4s13.4,20.1,13.4,33.6c0,16.4-5,29.3-15.2,38.7
			c-10.2,9.5-24,14.1-41.7,14.1h-45.3c-1.4,0-2-0.7-2-2v-19.4c0-1.3,0.7-1.8,2-1.8H379c-5-11-7.5-20.3-7.5-27.9
			c0-14.6,4.5-26.5,13.4-35.4C393.6,87.6,405.1,83.2,419.4,83.2z M410.4,159.8c10.4,0,18.8-2.6,24.8-7.8s9.1-12.4,9.1-21.5
			c0-7.5-2.5-13.8-7.4-18.7c-4.9-4.9-11-7.4-18.4-7.4c-7.1,0-13.2,2.6-18.3,7.8c-5,5.2-7.5,11.4-7.5,18.8c0,9.2,2.8,18.7,8.5,28.7
			L410.4,159.8L410.4,159.8z M434.5,50.7l-17.7,17.7l-18.1-17.7l17.7-17.6L434.5,50.7z"/>
	</g>
	<path class="st0" d="M132.9,134.5c0,6.8-5.5,12.3-12.3,12.3c-6.8,0-12.3-5.5-12.3-12.3s5.5-12.3,12.3-12.3
		C127.4,122.2,132.9,127.7,132.9,134.5z"/>
	<path class="st0" d="M120.6,122.2c-6.8,0-12.3,5.5-12.3,12.3s5.5,12.3,12.3,12.3c6.8,0,12.3-5.5,12.3-12.3S127.4,122.2,120.6,122.2
		z M120.6,122.2c-6.8,0-12.3,5.5-12.3,12.3s5.5,12.3,12.3,12.3c6.8,0,12.3-5.5,12.3-12.3S127.4,122.2,120.6,122.2z M120.6,122.2
		c-6.8,0-12.3,5.5-12.3,12.3s5.5,12.3,12.3,12.3c6.8,0,12.3-5.5,12.3-12.3S127.4,122.2,120.6,122.2z M120.6,122.2
		c-6.8,0-12.3,5.5-12.3,12.3s5.5,12.3,12.3,12.3c6.8,0,12.3-5.5,12.3-12.3S127.4,122.2,120.6,122.2z M120.6,122.2
		c-6.8,0-12.3,5.5-12.3,12.3s5.5,12.3,12.3,12.3c6.8,0,12.3-5.5,12.3-12.3S127.4,122.2,120.6,122.2z M120.6,122.2
		c-6.8,0-12.3,5.5-12.3,12.3s5.5,12.3,12.3,12.3c6.8,0,12.3-5.5,12.3-12.3S127.4,122.2,120.6,122.2z M120.6,122.2
		c-6.8,0-12.3,5.5-12.3,12.3s5.5,12.3,12.3,12.3c6.8,0,12.3-5.5,12.3-12.3S127.4,122.2,120.6,122.2z M120.6,122.2
		c-6.8,0-12.3,5.5-12.3,12.3s5.5,12.3,12.3,12.3c6.8,0,12.3-5.5,12.3-12.3S127.4,122.2,120.6,122.2z M153.5,96.9
		c-0.9-1-1.8-1.9-2.8-2.8h-11.3l-6.5-9.1l-0.8-1.1H108l-1.7,2.4l-5.6,7.9h-8.5c-1.4,1.2-2.8,2.5-4.1,3.8c-3.3,3.4-6,7.2-8,11.3v49.5
		c2,3.9,4.5,7.4,7.5,10.6c3.3,3.4,6.9,6.1,11,8.2h53.8c4.3,0,7.9-4.9,7.9-10.5v-61.1C158.4,102.7,156.2,99.7,153.5,96.9z
		 M143.6,160.1c-0.8,0-3.9,0.2-8.9,0.3c-5,0.2-8.6,0.3-10.7,0.3c-9,0-16.2-2.4-21.7-7.1c-5.5-4.7-8.1-11.4-8.1-20.3
		c0-7.9,2.4-14.3,7.1-19.3c4.9-5,11.1-7.5,18.3-7.5c7.1,0,12.8,2.4,17.3,7.1c4.5,4.7,6.7,11.2,6.7,19.1V160.1z M120.6,122.2
		c-6.8,0-12.3,5.5-12.3,12.3s5.5,12.3,12.3,12.3c6.8,0,12.3-5.5,12.3-12.3S127.4,122.2,120.6,122.2z M120.6,122.2
		c-6.8,0-12.3,5.5-12.3,12.3s5.5,12.3,12.3,12.3c6.8,0,12.3-5.5,12.3-12.3S127.4,122.2,120.6,122.2z M120.6,122.2
		c-6.8,0-12.3,5.5-12.3,12.3s5.5,12.3,12.3,12.3c6.8,0,12.3-5.5,12.3-12.3S127.4,122.2,120.6,122.2z M120.6,122.2
		c-6.8,0-12.3,5.5-12.3,12.3s5.5,12.3,12.3,12.3c6.8,0,12.3-5.5,12.3-12.3S127.4,122.2,120.6,122.2z M120.6,122.2
		c-6.8,0-12.3,5.5-12.3,12.3s5.5,12.3,12.3,12.3c6.8,0,12.3-5.5,12.3-12.3S127.4,122.2,120.6,122.2z M120.6,122.2
		c-6.8,0-12.3,5.5-12.3,12.3s5.5,12.3,12.3,12.3c6.8,0,12.3-5.5,12.3-12.3S127.4,122.2,120.6,122.2z M120.6,122.2
		c-6.8,0-12.3,5.5-12.3,12.3s5.5,12.3,12.3,12.3c6.8,0,12.3-5.5,12.3-12.3S127.4,122.2,120.6,122.2z"/>
	<circle class="st1" cx="145.4" cy="108.1" r="4.6"/>
</g>
</svg>
